<svg width="700" height="200" xmlns="http://www.w3.org/2000/svg">
    <defs/>
    <g>
        <path fill="#1b1b1f" stroke="#1b1b1f" stroke-miterlimit="10" d="M 353.87 119.94 C 351.09 120.01 348.33 119.340004 345.88998 118.01 C 343.68 116.73999 341.9 114.83999 340.76 112.56 C 339.52 109.94999 338.92 107.079994 339 104.19 C 339 101.03 339.56 98.25001 340.76 95.86 C 343.13 91.04 348.12 88.06 353.49 88.27 C 355.39 88.27 357.18 88.59 358.86996 89.17999 C 360.56 89.78 362.03 90.73 363.33997 91.99 C 364.64 93.26 365.66 94.83999 366.4 96.81 C 367.17 98.74 367.53 101.05999 367.53 103.77 L 367.53 105.99 L 342.39 105.99 L 342.39 101.07 L 360.6 101.07 C 360.6 99.66 360.27997 98.47 359.72003 97.38 C 359.12 96.33 358.31 95.45 357.26 94.81 C 356.21 94.18 355.01004 93.86 353.6 93.86 C 352.24 93.83 350.89 94.19999 349.73 94.91 C 348.6 95.61 347.73 96.56 347.09 97.72 C 346.49 98.88 346.18 100.15001 346.14 101.52 L 346.14 105.74 C 346.14 107.57 346.49 109.08 347.12 110.35 C 347.79 111.62 348.7 112.600006 349.86002 113.27 C 351.02 113.97 352.39 114.29 353.97 114.29 C 355.02 114.29 355.97 114.15 356.82 113.83 C 357.69998 113.549995 358.44003 113.09 359.04 112.49 C 359.67 111.93 360.17 111.19 360.45 110.31 L 367.24 111.079994 C 366.83 112.82 365.98 114.43 364.78 115.76 C 363.62 117.05999 362.11 118.12001 360.21 118.82001 C 358.38 119.52 356.27 119.91 353.88004 119.91 L 353.88004 119.95 Z"/>
        <path fill="#1b1b1f" stroke="#1b1b1f" stroke-miterlimit="10" d="M 316.25 119.87 C 311.43 119.96999 307.05 117.09 305.24 112.63 C 304.07 109.93001 303.5 107 303.59 104.05 C 303.59 100.64 304.15 97.76 305.28 95.399994 C 307.81 89.42999 314.7 86.63 320.67 89.16001 C 320.69 89.16001 320.7 89.17 320.72 89.17999 C 321.88 89.78 322.79 90.51999 323.46 91.36 C 324.16 92.2 324.66 92.979996 325.04 93.74999 L 325.32 93.74999 L 325.32 78.42 L 332.6 78.42 L 332.6 119.35 L 325.46 119.35 L 325.46 114.50001 L 325.04 114.50001 C 324.69 115.270004 324.13 116.05 323.42 116.89 C 321.61 118.93 318.97 120.03001 316.25 119.88 Z M 318.25 113.96 C 319.8 113.96 321.06 113.54 322.19 112.69 C 323.24 111.88 324.09 110.69001 324.65 109.17 C 325.18 107.73 325.46 106.01 325.46 104 C 325.46 101.99 325.18 100.27 324.62 98.8 C 324.16 97.45 323.31 96.27 322.19 95.39 C 321.05 94.56 319.66 94.14 318.25 94.189995 C 316.63 94.189995 315.3 94.61 314.21 95.42 C 313.16 96.26 312.35 97.42 311.78 98.94001 C 311.25 100.38 310.97 102.1 310.97 104 C 310.97 105.9 311.25 107.62 311.78 109.13 C 312.34 110.61 313.19 111.8 314.24 112.65 C 315.33 113.490005 316.7 113.94999 318.25 113.94999 Z"/>
        <path fill="#1b1b1f" stroke="#1b1b1f" stroke-miterlimit="10" d="M 290.19 119.340004 L 290.19 88.64 L 297.4 88.64 L 297.4 119.340004 L 290.19 119.340004 Z M 293.81 84.28 C 292.68 84.28 291.7 83.93 290.86 83.15 C 290.07 82.45 289.62 81.43 289.63 80.37 C 289.63 79.28 290.05 78.37 290.86 77.59 C 291.7 76.82 292.69 76.43 293.81 76.43 C 294.93 76.43 295.95 76.82 296.76 77.59 C 297.6 78.36 298.03 79.28 298.03 80.37 C 298.03 81.46 297.61 82.37 296.76 83.15 C 295.95 83.92 295 84.28 293.81 84.28 Z"/>
        <path fill="#1b1b1f" stroke="#1b1b1f" stroke-miterlimit="10" d="M 271.1 119.94 C 265.65 120.27 260.53 117.27 258.16 112.350006 C 256.95 109.78 256.35 106.95999 256.4 104.12 C 256.4 100.98999 257 98.25001 258.19 95.86 C 259.39 93.47 261.07 91.64 263.25 90.27 C 265.61 88.88 268.32 88.19 271.06 88.27 C 273.52 88.27 275.74 88.729996 277.67 89.68001 C 281.48 91.42 284.01 95.13 284.25 99.31 L 277.32 99.31 C 277.09 97.89 276.4 96.58 275.35 95.58001 C 274.3 94.6 272.89 94.1 271.13 94.1 C 269.69 94.1 268.39 94.49 267.26 95.3 C 266.13 96.07 265.26 97.2 264.66 98.68 C 264.03 100.19 263.71 101.94999 263.71 104.02 C 263.71 106.09 264.06 107.89 264.66 109.4 C 265.26 110.88 266.1 112.04 267.23 112.85 C 268.36 113.66 269.66 114.05001 271.17 114.05001 C 272.22 114.05001 273.17 113.869995 274.02 113.45 C 274.86 113.05999 275.6 112.47001 276.13 111.69 C 276.73 110.92 277.11 109.97 277.33 108.88 L 284.26 108.88 C 284.06 113.05 281.59 116.78 277.83 118.58 C 275.74 119.54 273.45 120.01 271.15 119.95 L 271.11 119.95 Z"/>
        <path fill="#1b1b1f" stroke="#1b1b1f" stroke-miterlimit="10" d="M 243.04 106.43 L 243.04 88.64 L 250.28 88.64 L 250.28 119.340004 L 243.24998 119.340004 L 243.24998 113.89 L 242.93 113.89 C 242.23001 115.61 241.1 117.02 239.52 118.11 C 237.94 119.16 236 119.73 233.71999 119.73 C 229.95 119.94 226.42 117.86 224.79 114.46 C 223.88 112.5 223.43001 110.36 223.49 108.2 L 223.49 88.65 L 230.73 88.65 L 230.73 107.07 C 230.73 109 231.26 110.59 232.31001 111.71001 C 233.36 112.87 234.77 113.42999 236.53 113.42999 C 238.77002 113.4 240.85 112.23 242.05 110.34 C 242.72002 109.29 243.03 107.98 243.03 106.439995 Z"/>
        <path fill="#1b1b1f" stroke="#1b1b1f" stroke-miterlimit="10" d="M 191.94998 119.340004 L 191.94998 78.41 L 199.33 78.41 L 199.33 113.10999 L 217.37 113.10999 L 217.37 119.329994 L 191.94998 119.329994 Z"/>
        <path fill="none" stroke="#1b1b1f" stroke-width="2" stroke-linecap="round" stroke-linejoin="round" d="M 142.19 98.24 C 142.19 90.47 135.89 84.18 128.13 84.18 C 120.37 84.18 114.06999 90.48 114.06999 98.24 C 114.06999 113.78 126.66 126.37001 142.2 126.37001 C 157.74 126.37001 170.33 113.78 170.33 98.24 C 170.33 85.76 164.88 74.51 156.27 66.81"/>
        <path fill="none" stroke="#f56565" stroke-width="2" stroke-linecap="round" stroke-linejoin="round" d="M 128.13 98.24 C 128.13 106.01 134.43 112.3 142.19 112.3 C 149.95 112.3 156.25 106 156.25 98.24 C 156.25 82.7 143.66 70.11 128.12 70.11 C 112.58 70.11 99.99 82.7 99.99 98.24 C 99.99 110.83 105.51 122.15 114.27 129.89"/>
    </g>
    <g>
        <path fill="#151d21" stroke="#505659" stroke-miterlimit="10" d="M 514.64 94.1 C 513.05 92.89 510.83 92.09999 507.98 91.72 L 502.71 91.04 C 501.3 90.86 500.21 90.54 499.45996 90.06999 C 499.1 89.86 498.80997 89.560005 498.61 89.2 C 498.41 88.84 498.30997 88.41999 498.32996 88 C 498.32996 85.87 500.33002 84.8 504.32 84.8 C 506.59 84.77 508.85 85.15 510.98 85.93001 C 511.64 86.16 512.27 86.46 512.86 86.82001 C 513.18 87.01001 513.48 87.23 513.76 87.48 C 513.93 87.399994 514.09 87.3 514.23 87.18 C 514.45 87.01001 514.65 86.81 514.82 86.58 C 515.02 86.31999 515.19 86.04 515.34 85.74 C 515.5 85.4 515.58 85.02 515.57 84.64 C 515.57 83.35 514.58 82.3 512.6 81.49 C 510.61996 80.69 507.83997 80.29 504.25998 80.3 C 502.42004 80.26 500.58997 80.48 498.80997 80.96 C 497.49 81.31 496.25003 81.92 495.17 82.77 C 494.29 83.47 493.58 84.38 493.11 85.42 C 492.68 86.42 492.46 87.5 492.46 88.59 C 492.43002 89.74 492.66998 90.88 493.16 91.92 C 493.61996 92.84 494.28 93.64 495.09 94.25001 C 495.99002 94.91 496.99 95.42 498.06 95.74 C 499.3 96.12 500.56998 96.38 501.86 96.5 L 505.88998 96.97 C 507.75 97.17 509.04004 97.53 509.76 98.04 C 510.11 98.29 510.4 98.62 510.59 99.01001 C 510.78 99.399994 510.87 99.83001 510.84003 100.27 C 510.84003 101.42 510.26996 102.24 509.14 102.71 C 508 103.18 506.53998 103.42 504.74 103.42 C 503.46 103.42 502.18 103.32 500.92004 103.11 C 499.86 102.93 498.82 102.67 497.8 102.35 C 497.02 102.1 496.25003 101.810005 495.5 101.48001 C 495.05 101.29 494.61996 101.07 494.21002 100.8 L 491.99 104.83 C 492.41003 105.14 492.85995 105.4 493.33 105.619995 C 494.21002 106.04 495.11 106.4 496.04 106.700005 C 497.32996 107.11 498.65 107.43 499.99 107.67 C 501.66 107.96 503.36 108.09999 505.05 108.09 C 508.9 108.09 511.86 107.3 513.91 105.73 C 514.89 105.02 515.68 104.07 516.22 102.97 C 516.76 101.869995 517.02 100.659996 516.99 99.44 C 517.01 97.1 516.23 95.32 514.64 94.11 Z"/>
        <path fill="#151d21" stroke="#505659" stroke-miterlimit="10" d="M 526.62 68.71 C 525.62 68.71 524.86 68.94 524.29 69.39 C 523.73 69.84 523.46 70.54 523.46 71.48 L 523.46 107.340004 L 529.35 107.340004 L 529.35 69.29 C 529.18 69.22 528.83 69.11 528.32 68.95 C 527.77 68.79 527.19 68.71 526.62 68.71 Z"/>
        <path fill="#151d21" stroke="#505659" stroke-miterlimit="10" d="M 540.22 69.23 C 539.75 69.23 539.29 69.31 538.85 69.49 C 538.41 69.67 538.02 69.94 537.69 70.27 C 537.36 70.61 537.1 71.01 536.92 71.45 C 536.74 71.89 536.65 72.36 536.66 72.84 C 536.66 73.43 536.81 74.02 537.09 74.54 C 537.37 75.06 537.77 75.51 538.26 75.84 C 538.75 76.17 539.31 76.37 539.89 76.43 C 540.47 76.49 541.06 76.4 541.6 76.17 C 542.14 75.94 542.62 75.58 542.99 75.12 C 543.36 74.66 543.61 74.12 543.73 73.53 C 543.84 72.95 543.82 72.35 543.65 71.78 C 543.48 71.21 543.18 70.69 542.77 70.27 C 542.44 69.93 542.05 69.66 541.61 69.48 C 541.18 69.3 540.71 69.21 540.24 69.22 Z"/>
        <path fill="#151d21" stroke="#505659" stroke-miterlimit="10" d="M 540.42 81.03 C 539.42 81.03 538.66 81.25 538.1 81.69 C 537.54 82.12 537.28 82.82 537.28 83.81 L 537.28 107.35 L 543.17 107.35 L 543.17 81.61 C 543 81.54 542.65 81.43 542.14 81.27 C 541.58 81.11 541.01 81.03 540.43 81.04 Z"/>
        <path fill="#151d21" stroke="#505659" stroke-miterlimit="10" d="M 572.44 83.25 C 571.26 82.26 569.9 81.51 568.44 81.05 C 566.8 80.53 565.09 80.27 563.38 80.29 C 561.67 80.27 559.97 80.53 558.34 81.05 C 556.88 81.51 555.53 82.26 554.36 83.25 C 553.24 84.21 552.33 85.41 551.72 86.759995 C 551.07 88.23 550.74 89.84 550.77 91.46001 L 550.77 107.340004 L 556.66 107.340004 L 556.66 92.979996 C 556.66 90.6 557.22 88.79001 558.34 87.55 C 559.46 86.31999 561.14 85.7 563.38 85.69 C 565.58 85.69 567.25 86.31 568.39 87.55 C 569.53 88.79001 570.1 90.6 570.1 92.979996 L 570.1 107.340004 L 575.99 107.340004 L 575.99 91.46001 C 576.02 89.85 575.71 88.24 575.07 86.759995 C 574.47 85.41 573.57 84.21 572.45 83.25 Z"/>
        <path fill="#151d21" stroke="#505659" stroke-miterlimit="10" d="M 597.62 101.41 C 597.04 101.79 596.42 102.09 595.76 102.3 C 594.87 102.62 593.92 102.78 592.97 102.76999 C 592.37 102.76999 591.77 102.700005 591.19 102.56 C 590.64 102.43 590.13 102.18 589.69 101.83 C 589.24 101.46 588.9 100.979996 588.68 100.44 C 588.42 99.73 588.29 98.97 588.32 98.21 L 588.32 86.51999 L 598.24 86.51999 C 598.4 86.17 598.54 85.81 598.65 85.45 C 598.83 84.92 598.91 84.36 598.91 83.8 C 598.91 82.91 598.68 82.2 598.21 81.73 C 597.74 81.26 596.94 81.03 595.81 81.03 L 588.32 81.03 L 588.32 74.18 C 588.15 74.11 587.79 74 587.26 73.84 C 586.7 73.68 586.12 73.6 585.53 73.6 C 584.72 73.55 583.92 73.78 583.26 74.26 C 582.7 74.68 582.43 75.37 582.43 76.37 L 582.43 99.43 C 582.43 102.01 583.2 104.09999 584.75 105.69 C 586.3 107.27999 588.59 108.07 591.62 108.07 C 592.61 108.07 593.59 107.96999 594.56 107.77 C 595.39 107.6 596.2 107.36 596.99 107.06 C 597.63 106.82001 598.24 106.51999 598.82 106.17 C 599.32 105.85 599.71 105.59 599.99 105.38 L 597.61 101.42 Z"/>
        <path fill="#2379f4" stroke="none" d="M 442.4 133.07 L 480.18 106.98 C 480.18 106.98 481.89 106 481.89 104.46 C 481.89 102.41 479.72998 101.74 479.72998 101.74 L 458.95 93.54 C 458.21 93.25 457.19 94.06 458.14 95.08999 L 465.02 101.94999 C 465.02 101.94999 466.93 103.82 466.93 105.05 C 466.93 106.28 465.76 107.37 465.76 107.37 L 440.72 131.48 C 439.83 132.34 441.03 133.89 442.4 133.06 Z"/>
        <path fill="#2379f4" stroke="none" d="M 472.92 66.93 L 435.14005 93.02 C 435.14005 93.02 433.43 94 433.43 95.54 C 433.43 97.59 435.58997 98.26 435.58997 98.26 L 456.37003 106.46 C 457.11 106.75 458.14 105.93001 457.18 104.91001 L 450.3 98.03 C 450.3 98.03 448.39 96.16 448.39 94.93 C 448.39 93.7 449.56 92.61 449.56 92.61 L 474.57996 68.52 C 475.49 67.66 474.29 66.11 472.90997 66.95 Z"/>
        <path fill="#151d21" stroke="#505659" stroke-miterlimit="10" d="M 508.63 124.83 C 508.63 125.92 508.44 126.94001 508.05 127.89 C 507.66 128.83 507.13 129.64 506.44 130.32 C 505.75998 131 504.95 131.55 504.03 131.95 C 503.11002 132.35 502.11002 132.55 501.04 132.55 C 499.97 132.55 498.87 132.34 497.87 131.93 C 496.89 131.5 496.02997 130.93 495.3 130.21 C 494.59 129.48 494.01 128.63 493.58 127.64 C 493.16 126.66 492.96 125.61001 492.96 124.49 C 492.96 123.37 493.17004 122.33 493.58 121.34 C 494 120.36 494.56 119.51 495.28 118.8 C 496 118.09 496.86 117.49999 497.85 117.08 C 498.85 116.65 499.9 116.43 501.02 116.43 C 502.23 116.43 503.36 116.659996 504.43 117.12 C 505.50003 117.57 506.42 118.189995 507.18 118.99 L 506.02 120.16999 C 505.42 119.49 504.68 118.95999 503.79 118.59 C 502.9 118.19999 501.97 118.01 501.02 118.01 C 500.13 118.01 499.28998 118.18 498.52 118.51999 C 497.75003 118.85 497.08 119.3 496.50998 119.88 C 495.96 120.45 495.52 121.13 495.19 121.93001 C 494.86002 122.72 494.7 123.57 494.7 124.47001 C 494.7 125.37 494.86002 126.23 495.19 127.04 C 495.52 127.83001 495.96 128.51 496.50998 129.09 C 497.08 129.66 497.74 130.11 498.52 130.45 C 499.28998 130.78 500.13 130.94 501.02 130.94 C 501.81 130.94 502.55 130.81 503.23 130.54 C 503.93 130.27 504.53 129.91 505.04 129.45 C 505.55997 128.97 505.98004 128.41 506.31 127.75 C 506.64 127.1 506.83 126.38999 506.88998 125.62999 L 501.29004 125.62999 L 501.29004 124.11 L 508.63 124.11 L 508.63 124.8 Z M 524.1 125.7 C 524.1 127.78001 523.51 129.45 522.34 130.7 C 521.18 131.93 519.62 132.55 517.65 132.55 C 515.68 132.55 514.1 131.93 512.94 130.7 C 511.78 129.47 511.2 127.8 511.2 125.7 L 511.2 116.68 L 512.92 116.68 L 512.92 125.7 C 512.92 127.29 513.35 128.57 514.21 129.54 C 515.07 130.49 516.22 130.97 517.65 130.97 C 519.08 130.97 520.22 130.49 521.09 129.54 C 521.95 128.57 522.38 127.29 522.38 125.7 L 522.38 116.68 L 524.1 116.68 L 524.1 125.7 Z M 527.45 132.3 L 527.45 116.68 L 529.17 116.68 L 529.17 132.3 L 527.45 132.3 Z M 538.93 129.8 L 538.93 122.51999 L 536.52 122.51999 L 536.52 121.10999 L 538.93 121.10999 L 538.93 118.28 L 540.56 117.86 L 540.56 121.12 L 543.93 121.12 L 543.93 122.53 L 540.56 122.53 L 540.56 129.38 C 540.56 129.98 540.69 130.41 540.96 130.67 C 541.23 130.92 541.67 131.05 542.28 131.05 C 542.59 131.05 542.87 131.03 543.11 130.98 C 543.36 130.94 543.63 130.86 543.91 130.76 L 543.91 132.21 C 543.63 132.31 543.31 132.39 542.95 132.43 C 542.61 132.47 542.27 132.5 541.95 132.5 C 540.98 132.5 540.24 132.27 539.72 131.81 C 539.2 131.35 538.94 130.68 538.94 129.8 Z M 545.06 126.700005 C 545.06 125.9 545.21 125.14 545.51 124.41999 C 545.81 123.71001 546.21 123.08999 546.71 122.57001 C 547.23 122.05001 547.84 121.64 548.54 121.34 C 549.24 121.04001 549.98 120.89 550.77 120.89 C 551.56 120.89 552.3 121.04001 552.98 121.34 C 553.68 121.64 554.28 122.05001 554.79 122.57001 C 555.31 123.08999 555.72 123.71001 556.02 124.41999 C 556.32 125.13 556.47 125.89 556.47 126.700005 C 556.47 127.51 556.32 128.28 556.02 129 C 555.72 129.72 555.31 130.33 554.79 130.85 C 554.28 131.37 553.68 131.78 552.98 132.08 C 552.3 132.38 551.56 132.53 550.77 132.53 C 549.98 132.53 549.24 132.38 548.54 132.08 C 547.84 131.78 547.23 131.37 546.71 130.85 C 546.2 130.33 545.8 129.71 545.51 129 C 545.21 128.29 545.06 127.52 545.06 126.700005 Z M 550.77 131.05 C 551.34 131.05 551.86 130.94 552.35 130.72 C 552.86 130.5 553.29 130.19 553.64 129.81 C 554.01 129.41 554.3 128.95 554.51 128.43 C 554.72 127.89 554.82 127.32 554.82 126.71 C 554.82 126.1 554.72 125.53 554.51 125.01 C 554.3 124.47001 554.01 124.01 553.64 123.63 C 553.28 123.24 552.85 122.94001 552.35 122.72 C 551.86 122.50001 551.33 122.38999 550.77 122.38999 C 550.21 122.38999 549.67 122.50001 549.16 122.72 C 548.67 122.94001 548.24 123.25 547.87 123.63 C 547.51 124.02 547.22 124.48 547 125.01 C 546.79 125.53 546.69 126.1 546.69 126.71 C 546.69 127.32 546.79 127.89 547 128.43 C 547.21 128.95 547.49 129.41 547.85 129.81 C 548.22 130.2 548.66 130.5 549.17 130.72 C 549.68 130.94 550.21 131.05 550.78 131.05 Z M 558.49 126.700005 C 558.49 125.9 558.64 125.14 558.94 124.41999 C 559.24 123.71001 559.64 123.08999 560.15 122.57001 C 560.67 122.05001 561.28 121.64 561.98 121.34 C 562.68 121.04001 563.42 120.89 564.21 120.89 C 565 120.89 565.74 121.04001 566.42 121.34 C 567.12 121.64 567.72 122.05001 568.23 122.57001 C 568.75 123.08999 569.16 123.71001 569.46 124.41999 C 569.76 125.13 569.91 125.89 569.91 126.700005 C 569.91 127.51 569.76 128.28 569.46 129 C 569.16 129.71 568.75 130.33 568.23 130.85 C 567.72 131.37 567.12 131.78 566.42 132.08 C 565.74 132.38 565 132.53 564.21 132.53 C 563.42 132.53 562.68 132.38 561.98 132.08 C 561.28 131.78 560.67 131.37 560.15 130.85 C 559.64 130.33 559.24 129.71 558.94 129 C 558.64 128.29 558.49 127.52 558.49 126.700005 Z M 564.2 131.05 C 564.77 131.05 565.29 130.94 565.78 130.72 C 566.29 130.5 566.72 130.19 567.07 129.81 C 567.44 129.41 567.73 128.95 567.94 128.43 C 568.15 127.89 568.25 127.32 568.25 126.71 C 568.25 126.1 568.15 125.53 567.94 125.01 C 567.73 124.47001 567.44 124.01 567.07 123.63 C 566.71 123.24 566.28 122.94001 565.78 122.72 C 565.29 122.50001 564.76 122.38999 564.2 122.38999 C 563.64 122.38999 563.1 122.50001 562.59 122.72 C 562.1 122.94001 561.67 123.25 561.3 123.63 C 560.94 124.02 560.65 124.48 560.43 125.01 C 560.22 125.53 560.12 126.1 560.12 126.71 C 560.12 127.32 560.22 127.89 560.43 128.43 C 560.64 128.95 560.92 129.41 561.28 129.81 C 561.65 130.2 562.09 130.5 562.6 130.72 C 563.11 130.94 563.64 131.05 564.21 131.05 Z M 574.06 116.3 L 574.06 132.3 L 572.41 132.3 L 572.41 116.68 L 574.06 116.3 Z M 577.1 132.3 L 577.1 116.68 L 578.75 116.3 L 578.75 126.16 L 584.6 121.12 L 586.61 121.12 L 580.47 126.43 L 586.9 132.3 L 584.65 132.3 L 578.76 126.94001 L 578.76 132.3 L 577.11 132.3 Z M 589.18 118.98 C 588.88 118.98 588.62 118.87 588.4 118.65 C 588.18 118.43 588.06 118.17 588.06 117.869995 C 588.06 117.560005 588.17 117.299995 588.4 117.09 C 588.62 116.87 588.88 116.76 589.18 116.76 C 589.48 116.76 589.75 116.87 589.96 117.09 C 590.18 117.299995 590.29 117.560005 590.29 117.869995 C 590.29 118.18 590.18 118.43 589.96 118.65 C 589.75 118.87 589.49 118.98 589.18 118.98 Z M 590 121.12 L 590 132.3 L 588.35 132.3 L 588.35 121.12 L 590 121.12 Z M 594.43 129.8 L 594.43 122.51999 L 592.02 122.51999 L 592.02 121.10999 L 594.43 121.10999 L 594.43 118.28 L 596.06 117.86 L 596.06 121.12 L 599.43 121.12 L 599.43 122.53 L 596.06 122.53 L 596.06 129.38 C 596.06 129.98 596.19 130.41 596.46 130.67 C 596.73 130.92 597.17 131.05 597.78 131.05 C 598.09 131.05 598.37 131.03 598.61 130.98 C 598.86 130.94 599.13 130.86 599.41 130.76 L 599.41 132.21 C 599.13 132.31 598.81 132.39 598.45 132.43 C 598.11 132.47 597.77 132.5 597.45 132.5 C 596.48 132.5 595.74 132.27 595.22 131.81 C 594.7 131.35 594.44 130.68 594.44 129.8 Z"/>
    </g>
    <path fill="none" stroke="#1b1b1f" stroke-width="2" stroke-linecap="round" stroke-linejoin="round" d="M 406.13 98.189995 L 394.13004 110.189995"/>
    <path fill="none" stroke="#1b1b1f" stroke-width="2" stroke-linecap="round" stroke-linejoin="round" d="M 394.13004 98.189995 L 406.13 110.189995"/>
</svg>
