<svg width="440.4919" height="60" xmlns="http://www.w3.org/2000/svg">
    <g>
        <path fill="#1b1b1f" stroke="none" d="M 195.67726 46.428093 C 193.5585 46.480682 191.46341 45.973057 189.60368 44.956524 C 187.92334 43.98678 186.56496 42.544666 185.69733 40.809364 C 184.7553 38.82199 184.2969 36.639915 184.35954 34.44147 C 184.35954 32.033447 184.78764 29.919731 185.69733 28.100336 C 187.50136 24.430292 191.29645 22.165825 195.38297 22.321074 C 196.82777 22.321074 198.19234 22.561874 199.4766 23.016724 C 200.76088 23.471575 201.88463 24.193981 202.87459 25.157194 C 203.86456 26.120405 204.64049 27.324419 205.20235 28.822746 C 205.79099 30.294317 206.05853 32.060204 206.05853 34.120403 L 206.05853 35.806023 L 186.9281 35.806023 L 186.9281 32.0602 L 200.78761 32.0602 C 200.78761 30.989967 200.54683 30.080269 200.11873 29.250837 C 199.66391 28.448162 199.0485 27.77926 198.24582 27.297659 C 197.44316 26.816053 196.53345 26.57525 195.46323 26.57525 C 194.42508 26.551579 193.40247 26.83047 192.5201 27.377926 C 191.66391 27.913042 190.99498 28.635454 190.5134 29.518394 C 190.05856 30.401339 189.81773 31.364546 189.791 32.408028 L 189.791 35.61873 C 189.791 37.010033 190.05856 38.160534 190.54016 39.12375 C 191.04852 40.086956 191.74417 40.83612 192.62709 41.344482 C 193.51006 41.8796 194.55353 42.120403 195.75755 42.120403 C 196.56023 42.120403 197.28264 42.01338 197.92476 41.772575 C 198.59366 41.55853 199.15553 41.2107 199.61037 40.75585 C 200.09198 40.32776 200.46655 39.76589 200.68062 39.09699 L 205.84448 39.68562 C 205.53224 41.011497 204.88771 42.236103 203.97159 43.24415 C 203.08862 44.234116 201.93814 45.03679 200.49332 45.571907 C 199.10202 46.107025 197.49667 46.401337 195.67726 46.401337 L 195.67726 46.428093 Z"/>
        <path fill="#1b1b1f" stroke="none" d="M 167.0485 46.37458 C 163.38345 46.454033 160.05055 44.260494 158.67392 40.862877 C 157.78224 38.804916 157.35298 36.576378 157.41638 34.334446 C 157.41638 31.739128 157.84448 29.545149 158.70067 27.752506 C 160.62282 23.206724 165.86613 21.079857 170.41191 23.00202 C 170.42343 23.006893 170.43497 23.011797 170.44649 23.016722 C 171.32944 23.47157 172.02507 24.033447 172.53343 24.675585 C 173.06853 25.317724 173.44313 25.906353 173.73746 26.494984 L 173.95149 26.494984 L 173.95149 14.829431 L 179.48996 14.829431 L 179.48996 45.973244 L 174.05852 45.973244 L 174.05852 42.280937 L 173.73746 42.280937 C 173.4699 42.869564 173.04181 43.45819 172.5067 44.10033 C 171.13208 45.654987 169.12033 46.49322 167.0485 46.37458 Z M 168.57358 41.879597 C 169.75084 41.879597 170.71407 41.558525 171.57025 40.916386 C 172.37292 40.301003 173.01506 39.391304 173.44316 38.240803 C 173.84448 37.14381 174.05853 35.832775 174.05853 34.30769 C 174.05853 32.782604 173.84448 31.47157 173.41641 30.347828 C 173.06424 29.322762 172.42308 28.421438 171.57025 27.752506 C 170.70059 27.123903 169.64592 26.803736 168.57358 26.842808 C 167.34282 26.842808 166.3261 27.163877 165.49666 27.77926 C 164.69398 28.421404 164.0786 29.304346 163.6505 30.454847 C 163.24916 31.551838 163.03513 32.862873 163.03513 34.30769 C 163.03513 35.752506 163.24918 37.06354 163.6505 38.214046 C 164.0786 39.33779 164.72075 40.24749 165.52342 40.88963 C 166.35284 41.53177 167.39633 41.879597 168.57358 41.879597 Z"/>
        <path fill="#1b1b1f" stroke="none" d="M 147.22241 45.973244 L 147.22241 22.615385 L 152.70737 22.615385 L 152.70737 45.973244 L 147.22241 45.973244 Z M 149.97826 19.297657 C 149.12207 19.297657 148.37291 19.0301 147.73077 18.44147 C 147.12685 17.906048 146.78516 17.134794 146.79431 16.327757 C 146.79431 15.498325 147.11539 14.802674 147.73077 14.214045 C 148.37291 13.625417 149.12207 13.331102 149.97826 13.331102 C 150.8612 13.331102 151.61037 13.625417 152.22575 14.214045 C 152.8679 14.802674 153.18896 15.498325 153.18896 16.327757 C 153.18896 17.130434 152.8679 17.85284 152.22575 18.44147 C 151.61037 19.030098 150.88795 19.297657 149.97826 19.297657 Z"/>
        <path fill="#1b1b1f" stroke="none" d="M 132.69398 46.428093 C 128.54338 46.677715 124.6534 44.39446 122.847824 40.64883 C 121.924995 38.692986 121.46712 36.550163 121.51003 34.38796 C 121.51003 32.006687 121.96488 29.919731 122.87458 28.100332 C 123.78427 26.280935 125.06856 24.889631 126.72742 23.846151 C 128.52548 22.791624 130.58354 22.263206 132.66722 22.32107 C 134.54013 22.32107 136.22575 22.668894 137.69733 23.3913 C 140.5964 24.717085 142.52267 27.53953 142.70067 30.722406 L 137.42976 30.722406 C 137.25319 29.638855 136.72699 28.642818 135.93143 27.886284 C 135.12875 27.137123 134.05852 26.762543 132.72072 26.762543 C 131.62373 26.762543 130.63377 27.056854 129.77759 27.672237 C 128.9214 28.26087 128.2525 29.117056 127.797646 30.240805 C 127.31604 31.391304 127.07523 32.729095 127.07523 34.30769 C 127.07523 35.913044 127.34279 37.250835 127.797646 38.401337 C 128.25249 39.52508 128.89464 40.408024 129.75082 41.02341 C 130.60701 41.638794 131.59697 41.93311 132.74748 41.93311 C 133.55016 41.93311 134.27255 41.799328 134.9147 41.47826 C 135.55685 41.183945 136.11871 40.729095 136.52005 40.14047 C 136.9749 39.551838 137.26921 38.82943 137.42975 38 L 142.70065 38 C 142.55055 41.17459 140.67012 44.010635 137.80434 45.384613 C 136.21138 46.115063 134.47261 46.471973 132.72072 46.42809 L 132.69398 46.428093 Z"/>
        <path fill="#1b1b1f" stroke="none" d="M 111.342804 36.153847 L 111.342804 22.615385 L 116.854515 22.615385 L 116.854515 45.973244 L 111.50335 45.973244 L 111.50335 41.826088 L 111.26254 41.826088 C 110.72743 43.137123 109.87125 44.20736 108.66723 45.03679 C 107.46321 45.839462 105.991646 46.267555 104.25251 46.267555 C 101.38314 46.43075 98.6991 44.84568 97.45652 42.254177 C 96.76071 40.765232 96.421745 39.13453 96.46655 37.491634 L 96.46655 22.615385 L 101.978264 22.615385 L 101.978264 36.635452 C 101.978264 38.107025 102.379616 39.311035 103.18228 40.167225 C 103.984955 41.050167 105.05519 41.47826 106.39298 41.47826 C 108.101006 41.453293 109.680984 40.5677 110.59365 39.123745 C 111.10201 38.321068 111.342804 37.3311 111.342804 36.153847 Z"/>
        <path fill="#1b1b1f" stroke="none" d="M 72.46655 45.973244 L 72.46655 14.829431 L 78.08529 14.829431 L 78.08529 41.237457 L 91.81104 41.237457 L 91.81104 45.973244 L 72.46655 45.973244 Z"/>
        <path fill="none" stroke="#1b1b1f" stroke-width="5" stroke-linecap="round" stroke-linejoin="round" d="M 34.607025 29.919731 C 34.607025 24.008993 29.815422 19.21739 23.90468 19.21739 C 17.993942 19.21739 13.202341 24.008993 13.202341 29.919731 C 13.202341 41.74121 22.785545 51.32441 34.607025 51.32441 C 46.428505 51.32441 56.01171 41.74121 56.01171 29.919731 C 56.01171 20.421404 51.86455 11.85953 45.309364 6"/>
        <path fill="none" stroke="#f56565" stroke-width="5" stroke-linecap="round" stroke-linejoin="round" d="M 23.90468 29.919731 C 23.90468 35.83047 28.696283 40.622074 34.607025 40.622074 C 40.517765 40.622074 45.309364 35.83047 45.309364 29.919731 C 45.309364 18.098251 35.726162 8.515049 23.90468 8.515049 C 12.083202 8.515049 2.5 18.098251 2.5 29.919731 C 2.5 39.498325 6.7006693 48.11371 13.362876 54"/>
    </g>
    <g>
        <path fill="#151d21" stroke="none" d="M 363.6182 24.685823 C 362.19037 23.598278 360.1897 22.882824 357.61615 22.53946 L 352.87268 21.925005 C 351.59998 21.765823 350.62344 21.474277 349.94308 21.050367 C 349.6206 20.865095 349.35452 20.593369 349.1741 20.264915 C 348.99362 19.93655 348.9056 19.564096 348.9198 19.18837 C 348.9198 17.267277 350.7177 16.30764 354.31372 16.309458 C 356.35806 16.280642 358.3909 16.624096 360.3157 17.32364 C 360.90643 17.534096 361.47507 17.803732 362.01324 18.12855 C 362.3009 18.299913 362.5725 18.49746 362.82498 18.718822 C 362.9769 18.650097 363.11844 18.559732 363.24533 18.450459 C 363.443 18.294733 363.6206 18.114458 363.77417 17.913914 C 363.9536 17.678005 364.10953 17.42455 364.23953 17.157276 C 364.38507 16.848549 364.45673 16.509367 364.44843 16.167276 C 364.44843 15.002823 363.55734 14.058367 361.77524 13.334003 C 359.9932 12.609549 357.48926 12.251822 354.2634 12.260731 C 352.6086 12.22664 350.95715 12.425276 349.35608 12.851003 C 348.16608 13.163913 347.0508 13.717913 346.07742 14.47964 C 345.2806 15.111185 344.64566 15.928458 344.22653 16.862186 C 343.8377 17.761822 343.63953 18.734459 343.6449 19.716915 C 343.61642 20.752459 343.83215 21.779911 344.27417 22.713825 C 344.6868 23.541553 345.28326 24.260733 346.0166 24.814644 C 346.82697 25.412733 347.73187 25.866367 348.69244 26.1561 C 349.8059 26.50255 350.95148 26.731733 352.11118 26.840279 L 355.7388 27.266916 C 357.41345 27.445734 358.5759 27.767735 359.22638 28.232826 C 359.54486 28.454369 359.8019 28.75537 359.9728 29.106827 C 360.14362 29.458279 360.2225 29.848368 360.2021 30.239735 C 360.2021 31.278915 359.69083 32.01046 358.6684 32.434372 C 357.64606 32.85837 356.32407 33.070282 354.70233 33.070282 C 353.5507 33.07719 352.40073 32.982918 351.2651 32.788555 C 350.31357 32.62355 349.3737 32.395008 348.4518 32.10437 C 347.74863 31.88137 347.05753 31.620733 346.38144 31.323645 C 345.97598 31.15637 345.5866 30.951555 345.21808 30.711916 L 343.21915 34.344738 C 343.5986 34.619556 344.00333 34.856735 344.42752 35.05301 C 345.21817 35.434372 346.03464 35.75801 346.8706 36.021645 C 348.03604 36.39046 349.22406 36.681736 350.42688 36.893555 C 351.93216 37.157738 353.45767 37.28437 354.98526 37.27192 C 358.4561 37.27192 361.11508 36.563553 362.96246 35.146915 C 363.84497 34.50437 364.55872 33.6521 365.04135 32.664642 C 365.52396 31.67728 365.7607 30.584824 365.7308 29.4831 C 365.74844 27.372461 365.04416 25.77337 363.6182 24.685823 Z"/>
        <path fill="#151d21" stroke="none" d="M 374.40863 1.818446 C 373.5097 1.818446 372.82217 2.0250373 372.3145 2.4328556 C 371.80692 2.8406737 371.57153 3.471183 371.57153 4.310974 L 371.57153 36.603825 L 376.87286 36.603825 L 376.87286 2.3389463 C 376.7169 2.2772374 376.40753 2.1726007 375.94226 2.0330827 C 375.44415 1.8855827 374.92743 1.8132645 374.40863 1.818446 Z"/>
        <path fill="#151d21" stroke="none" d="M 386.65826 2.2906556 C 386.2355 2.285619 385.81647 2.3664281 385.42462 2.5283372 C 385.0328 2.6902375 384.67645 2.9299738 384.37827 3.2334375 C 384.07916 3.5369103 383.8428 3.8979828 383.6828 4.295438 C 383.5237 4.692892 383.44373 5.1187105 383.44916 5.5478473 C 383.45096 6.0823746 383.5837 6.608011 383.8337 7.078393 C 384.0837 7.548784 384.4446 7.9494567 384.8837 8.245066 C 385.3219 8.540675 385.82645 8.722138 386.35007 8.773448 C 386.8746 8.824748 387.40375 8.74432 387.8901 8.539257 C 388.37646 8.334193 388.80554 8.010793 389.14008 7.597584 C 389.47372 7.184384 389.70282 6.694075 389.80646 6.16992 C 389.90918 5.6457562 389.88373 5.103865 389.7319 4.5920377 C 389.58005 4.0802193 389.3064 3.614192 388.93555 3.2350829 C 388.63916 2.9283373 388.2846 2.6863012 387.8928 2.5238736 C 387.50186 2.3614554 387.0819 2.2820826 386.65826 2.2906556 Z"/>
        <path fill="#151d21" stroke="none" d="M 386.83554 12.915458 C 385.93643 12.915458 385.24915 13.114003 384.7419 13.505731 C 384.2337 13.8973675 384.00644 14.525277 384.00644 15.410641 L 384.00644 36.606556 L 389.30826 36.606556 L 389.30826 13.430549 C 389.15186 13.366185 388.84283 13.264184 388.37735 13.122004 C 387.87552 12.977912 387.3564 12.908366 386.83554 12.915458 Z"/>
        <path fill="#151d21" stroke="none" d="M 415.67462 14.916913 C 414.6137 14.021094 413.38916 13.347184 412.07098 12.934185 C 410.59552 12.466185 409.05737 12.235277 407.5128 12.250003 C 405.97464 12.23373 404.44464 12.46464 402.97827 12.934185 C 401.66736 13.350912 400.45007 14.0245495 399.39554 14.916913 C 398.38373 15.7815485 397.5719 16.860369 397.01553 18.077549 C 396.42734 19.405823 396.13644 20.850004 396.16373 22.306004 L 396.16373 36.606464 L 401.46555 36.606464 L 401.46555 23.67437 C 401.46555 21.527912 401.9692 19.899279 402.97827 18.788551 C 403.98642 17.67773 405.49738 17.119732 407.5128 17.114368 C 409.49554 17.114368 410.9992 17.672367 412.02283 18.788551 C 413.04736 19.90464 413.5592 21.53328 413.5592 23.67437 L 413.5592 36.606464 L 418.86096 36.606464 L 418.86096 22.306004 C 418.8892 20.852642 418.60736 19.410276 418.03555 18.077549 C 417.4919 16.857733 416.68555 15.777641 415.67462 14.916913 Z"/>
        <path fill="#151d21" stroke="none" d="M 438.34738 31.270006 C 437.82645 31.610916 437.26373 31.881462 436.67374 32.074917 C 435.86832 32.36292 435.01917 32.50728 434.16464 32.50146 C 433.62463 32.503918 433.0855 32.440918 432.5601 32.31364 C 432.06827 32.196915 431.60736 31.971554 431.211 31.653645 C 430.81006 31.320007 430.49823 30.8891 430.30463 30.400644 C 430.06644 29.760916 429.95554 29.079733 429.9792 28.396461 L 429.9792 17.86555 L 438.90826 17.86555 C 439.05008 17.551096 439.17462 17.228642 439.281 16.899733 C 439.4392 16.419733 439.51733 15.916641 439.51373 15.410641 C 439.51373 14.605731 439.30466 13.972549 438.88464 13.548638 C 438.46375 13.124729 437.74188 12.915458 436.71918 12.915458 L 429.97644 12.915458 L 429.97644 6.7444654 C 429.8201 6.6800747 429.50278 6.57812 429.0219 6.435911 C 428.51462 6.291902 427.991 6.2205563 427.46463 6.2239566 C 426.73645 6.18232 426.01553 6.390202 425.41827 6.81422 C 424.91013 7.192529 424.67282 7.817675 424.67282 8.711121 L 424.67282 29.475008 C 424.67282 31.800282 425.3701 33.678463 426.76645 35.10937 C 428.1628 36.540375 430.22464 37.255825 432.9537 37.255825 C 433.84192 37.258915 434.72827 37.169006 435.59735 36.98746 C 436.34103 36.831646 437.0719 36.619007 437.78467 36.351646 C 438.35736 36.135918 438.91006 35.866463 439.43466 35.546734 C 439.88373 35.262283 440.23645 35.02619 440.4919 34.83837 L 438.34738 31.270006 Z"/>
        <path fill="#2379f4" stroke="none" d="M 298.56842 59.78492 L 332.5928 36.288643 C 332.5928 36.288643 334.12823 35.409733 334.12823 34.022736 C 334.12823 32.175735 332.18652 31.574915 332.18652 31.574915 L 313.4685 24.193733 C 312.8006 23.932823 311.8814 24.664097 312.74207 25.591007 L 318.93896 31.770645 C 318.93896 31.770645 320.66034 33.45628 320.66034 34.561733 C 320.66034 35.667187 319.60342 36.652554 319.60342 36.652554 L 297.05362 58.363647 C 296.25146 59.1361 297.33594 60.53683 298.56842 59.78492 Z"/>
        <path fill="#2379f4" stroke="none" d="M 326.0517 0.21673496 L 292.02734 23.709642 C 292.02734 23.709642 290.49188 24.588552 290.49188 25.97546 C 290.49188 27.822552 292.43356 28.423279 292.43356 28.423279 L 311.1516 35.80801 C 311.81952 36.065464 312.74216 35.33419 311.87805 34.410736 L 305.68115 28.21046 C 305.68115 28.21046 303.95978 26.528278 303.95978 25.41937 C 303.95978 24.310461 305.0167 23.32855 305.0167 23.32855 L 327.5527 1.6346189 C 328.36862 0.86216414 327.2876 -0.5385534 326.0517 0.21673496 Z"/>
        <path fill="#151d21" stroke="none" d="M 358.212 52.358196 C 358.212 53.336285 358.03784 54.254105 357.6895 55.111557 C 357.34116 55.95565 356.8588 56.68592 356.24243 57.302197 C 355.62616 57.91856 354.90262 58.40756 354.07187 58.76938 C 353.24118 59.131104 352.34354 59.312016 351.3788 59.312016 C 350.3739 59.312016 349.42258 59.12437 348.52496 58.749287 C 347.64063 58.36074 346.87024 57.84483 346.2137 57.201744 C 345.57062 56.545193 345.0547 55.774826 344.66617 54.89047 C 344.29108 54.006195 344.10345 53.061646 344.10345 52.05674 C 344.10345 51.051834 344.29108 50.107285 344.66617 49.222916 C 345.04135 48.338654 345.5505 47.57492 346.1936 46.93183 C 346.85013 46.275284 347.6205 45.759464 348.50488 45.384277 C 349.40253 44.99574 350.3538 44.801464 351.3587 44.801464 C 352.44397 44.801464 353.469 45.009193 354.43362 45.424465 C 355.39832 45.82647 356.22235 46.38919 356.9057 47.11274 L 355.86066 48.17792 C 355.32462 47.561558 354.6547 47.085915 353.85083 46.75092 C 353.04684 46.402554 352.21622 46.22837 351.3587 46.22837 C 350.5548 46.22837 349.80453 46.382465 349.1078 46.690647 C 348.41107 46.985462 347.80817 47.3941 347.29898 47.916645 C 346.80325 48.42574 346.408 49.042103 346.11328 49.765556 C 345.81845 50.47574 345.67105 51.23947 345.67105 52.05674 C 345.67105 52.87401 345.81845 53.644466 346.11328 54.36801 C 346.408 55.078102 346.80325 55.694378 347.29898 56.216923 C 347.80817 56.726105 348.41107 57.13474 349.1078 57.442917 C 349.80453 57.737644 350.5548 57.88511 351.3587 57.88511 C 352.0688 57.88511 352.7321 57.76447 353.34833 57.52329 C 353.97803 57.282104 354.52072 56.95383 354.97635 56.53856 C 355.44528 56.10974 355.82706 55.60065 356.1219 55.011105 C 356.41663 54.421562 356.5908 53.785103 356.64444 53.10183 L 351.5999 53.10183 L 351.5999 51.735195 L 358.212 51.735195 L 358.212 52.358196 Z M 372.14148 53.142017 C 372.14148 55.01783 371.61215 56.518375 370.55368 57.64392 C 369.50864 58.75592 368.10184 59.312016 366.33325 59.312016 C 364.55124 59.312016 363.13766 58.75592 362.09262 57.64392 C 361.04755 56.531834 360.525 55.0312 360.525 53.142017 L 360.525 45.022556 L 362.07254 45.022556 L 362.07254 53.142017 C 362.07254 54.575645 362.46106 55.727924 363.23816 56.59883 C 364.01526 57.456287 365.04694 57.88511 366.33325 57.88511 C 367.61945 57.88511 368.65115 57.456287 369.42822 56.59883 C 370.20538 55.727924 370.5939 54.575645 370.5939 53.142017 L 370.5939 45.022556 L 372.14148 45.022556 L 372.14148 53.142017 Z M 375.15817 59.090923 L 375.15817 45.022556 L 376.70563 45.022556 L 376.70563 59.090923 L 375.15817 59.090923 Z M 385.49374 56.84001 L 385.49374 50.2881 L 383.3237 50.2881 L 383.3237 49.022007 L 385.49374 49.022007 L 385.49374 46.46956 L 386.961 46.087738 L 386.961 49.022007 L 389.99643 49.022007 L 389.99643 50.2881 L 386.961 50.2881 L 386.961 56.458103 C 386.961 56.994102 387.0819 57.382652 387.32278 57.623833 C 387.56464 57.851563 387.95917 57.96547 388.50916 57.96547 C 388.79007 57.96547 389.0383 57.94538 389.25278 57.905197 C 389.48007 57.864925 389.72098 57.798016 389.97552 57.704197 L 389.97552 59.01056 C 389.72098 59.10429 389.43372 59.171288 389.11188 59.211468 C 388.8037 59.251743 388.50186 59.271835 388.20734 59.271835 C 387.33643 59.271835 386.66644 59.0641 386.19733 58.648746 C 385.72827 58.23338 385.49374 57.63047 385.49374 56.84001 Z M 391.01282 54.046375 C 391.01282 53.32292 391.14737 52.639553 391.41553 51.996464 C 391.6828 51.353287 392.04462 50.797283 392.5001 50.328373 C 392.96918 49.859375 393.51825 49.490925 394.14825 49.222916 C 394.77826 48.95501 395.44827 48.82101 396.1583 48.82101 C 396.86823 48.82101 397.53186 48.95501 398.14825 49.222916 C 398.77734 49.490925 399.32007 49.859375 399.77554 50.328373 C 400.2446 50.797283 400.61285 51.353287 400.88098 51.996464 C 401.14917 52.639553 401.28284 53.32292 401.28284 54.046375 C 401.28284 54.783287 401.14917 55.473373 400.88098 56.116467 C 400.61285 56.759556 400.2446 57.31565 399.77554 57.784557 C 399.32007 58.253563 398.77734 58.622013 398.14825 58.889923 C 397.53186 59.157925 396.86823 59.291924 396.1583 59.291924 C 395.44827 59.291924 394.77826 59.157925 394.14825 58.889923 C 393.51825 58.622013 392.96918 58.253563 392.5001 57.784557 C 392.04462 57.31565 391.6828 56.759556 391.41553 56.116467 C 391.14737 55.473373 391.01282 54.783287 391.01282 54.046375 Z M 396.1583 57.96547 C 396.66736 57.96547 397.14282 57.864925 397.58554 57.664017 C 398.04095 57.463013 398.4292 57.188377 398.75098 56.84001 C 399.08554 56.47819 399.34735 56.06283 399.53467 55.59392 C 399.7219 55.111557 399.81552 54.59574 399.81552 54.046375 C 399.81552 53.497105 399.7219 52.987923 399.53467 52.519016 C 399.34735 52.036648 399.08554 51.621284 398.75098 51.272923 C 398.4292 50.924553 398.04095 50.64992 397.58554 50.44892 C 397.14282 50.24792 396.66736 50.147465 396.1583 50.147465 C 395.6492 50.147465 395.16644 50.24792 394.711 50.44892 C 394.26917 50.64992 393.8801 50.924553 393.54553 51.272923 C 393.22375 51.621284 392.9628 52.036648 392.76193 52.519016 C 392.57376 52.987923 392.48007 53.497105 392.48007 54.046375 C 392.48007 54.59574 392.57376 55.111557 392.76193 55.59392 C 392.94916 56.06283 393.2037 56.47819 393.52554 56.84001 C 393.8601 57.188377 394.25552 57.463013 394.711 57.664017 C 395.16644 57.864925 395.6492 57.96547 396.1583 57.96547 Z M 403.10828 54.046375 C 403.10828 53.32292 403.2419 52.639553 403.51007 51.996464 C 403.77734 51.353287 404.13916 50.797283 404.59555 50.328373 C 405.06372 49.859375 405.61368 49.490925 406.2428 49.222916 C 406.8728 48.95501 407.54282 48.82101 408.25284 48.82101 C 408.9628 48.82101 409.62646 48.95501 410.2428 49.222916 C 410.8719 49.490925 411.41464 49.859375 411.8701 50.328373 C 412.33917 50.797283 412.70828 51.353287 412.97552 51.996464 C 413.2437 52.639553 413.37732 53.32292 413.37732 54.046375 C 413.37732 54.783287 413.2437 55.473373 412.97552 56.116467 C 412.70828 56.759556 412.33917 57.31565 411.8701 57.784557 C 411.41464 58.253563 410.8719 58.622013 410.2428 58.889923 C 409.62646 59.157925 408.9628 59.291924 408.25284 59.291924 C 407.54282 59.291924 406.8728 59.157925 406.2428 58.889923 C 405.61368 58.622013 405.06372 58.253563 404.59555 57.784557 C 404.13916 57.31565 403.77734 56.759556 403.51007 56.116467 C 403.2419 55.473373 403.10828 54.783287 403.10828 54.046375 Z M 408.25284 57.96547 C 408.76193 57.96547 409.2374 57.864925 409.68008 57.664017 C 410.1355 57.463013 410.52374 57.188377 410.84555 56.84001 C 411.18008 56.47819 411.4419 56.06283 411.6292 55.59392 C 411.81644 55.111557 411.911 54.59574 411.911 54.046375 C 411.911 53.497105 411.81644 52.987923 411.6292 52.519016 C 411.4419 52.036648 411.18008 51.621284 410.84555 51.272923 C 410.52374 50.924553 410.1355 50.64992 409.68008 50.44892 C 409.2374 50.24792 408.76193 50.147465 408.25284 50.147465 C 407.74374 50.147465 407.261 50.24792 406.80554 50.44892 C 406.3637 50.64992 405.97552 50.924553 405.64008 51.272923 C 405.3183 51.621284 405.05734 52.036648 404.85648 52.519016 C 404.66916 52.987923 404.57462 53.497105 404.57462 54.046375 C 404.57462 54.59574 404.66916 55.111557 404.85648 55.59392 C 405.04373 56.06283 405.2983 56.47819 405.6201 56.84001 C 405.9546 57.188377 406.35007 57.463013 406.80554 57.664017 C 407.261 57.864925 407.74374 57.96547 408.25284 57.96547 Z M 417.13284 44.68092 L 417.13284 59.090923 L 415.64554 59.090923 L 415.64554 45.022556 L 417.13284 44.68092 Z M 419.87012 59.090923 L 419.87012 45.022556 L 421.35648 44.68092 L 421.35648 53.564102 L 426.6228 49.022007 L 428.431 49.022007 L 422.90463 53.805195 L 428.6928 59.090923 L 426.66284 59.090923 L 421.35648 54.267467 L 421.35648 59.090923 L 419.87012 59.090923 Z M 430.74554 47.092648 C 430.47736 47.092648 430.24283 46.992096 430.0419 46.7911 C 429.841 46.59019 429.74008 46.355736 429.74008 46.087738 C 429.74008 45.806374 429.841 45.571922 430.0419 45.384277 C 430.24283 45.18337 430.47736 45.08283 430.74554 45.08283 C 431.02646 45.08283 431.261 45.18337 431.44916 45.384277 C 431.6501 45.571922 431.7501 45.806374 431.7501 46.087738 C 431.7501 46.355736 431.6501 46.59019 431.44916 46.7911 C 431.261 46.992096 431.02646 47.092648 430.74554 47.092648 Z M 431.48914 49.022007 L 431.48914 59.090923 L 430.0019 59.090923 L 430.0019 49.022007 L 431.48914 49.022007 Z M 435.4719 56.84001 L 435.4719 50.2881 L 433.3019 50.2881 L 433.3019 49.022007 L 435.4719 49.022007 L 435.4719 46.46956 L 436.93915 46.087738 L 436.93915 49.022007 L 439.97372 49.022007 L 439.97372 50.2881 L 436.93915 50.2881 L 436.93915 56.458103 C 436.93915 56.994102 437.0601 57.382652 437.301 57.623833 C 437.5419 57.851563 437.9374 57.96547 438.48648 57.96547 C 438.76828 57.96547 439.01645 57.94538 439.2301 57.905197 C 439.45828 57.864925 439.69916 57.798016 439.95374 57.704197 L 439.95374 59.01056 C 439.69916 59.10429 439.411 59.171288 439.0901 59.211468 C 438.78192 59.251743 438.4801 59.271835 438.18555 59.271835 C 437.31464 59.271835 436.64465 59.0641 436.17554 58.648746 C 435.70648 58.23338 435.4719 57.63047 435.4719 56.84001 Z"/>
    </g>
    <path fill="#161618" stroke="none" d="M 252.77519 30 C 252.77519 32.485283 250.76048 34.5 248.2752 34.5 C 245.78995 34.5 243.7752 32.485283 243.7752 30 C 243.7752 27.514719 245.78995 25.500002 248.2752 25.500002 C 250.76048 25.500002 252.77519 27.514719 252.77519 30 Z"/>
</svg>
